<?xml version="1.0" encoding="utf-8"?>
<!-- Generator: Adobe Illustrator 16.0.0, SVG Export Plug-In . SVG Version: 6.00 Build 0)  -->
<!DOCTYPE svg PUBLIC "-//W3C//DTD SVG 1.1//EN" "http://www.w3.org/Graphics/SVG/1.1/DTD/svg11.dtd">
<svg version="1.1" id="Ebene_1" xmlns="http://www.w3.org/2000/svg" xmlns:xlink="http://www.w3.org/1999/xlink" x="0px" y="0px"
	 width="149.237px" height="134.5px" viewBox="0 0 149.237 134.5" enable-background="new 0 0 149.237 134.5" xml:space="preserve">
<g>
	<path d="M27.374,97.426c-1.584,0-3.048,0.476-4.36,1.418v-9.385c0-0.339-0.237-0.576-0.576-0.576h-0.955
		c-0.094,0-0.179,0.02-0.224,0.037l-4.11,0.659c-0.329,0-0.56,0.237-0.56,0.576v0.76c0,0.349,0.24,0.594,0.545,0.594
		c0,0,0.001,0,0.002,0l2.381,0.234v20.228l0.155,0.125c0.557,0.445,1.333,0.797,2.308,1.048c1.111,0.288,2.136,0.433,3.047,0.433
		c2.514,0,4.593-0.877,6.179-2.611c1.521-1.678,2.293-3.807,2.293-6.327c0-1.929-0.53-3.598-1.576-4.962
		C30.78,98.184,29.249,97.426,27.374,97.426z M25.286,111.261c-1.069,0-1.833-0.172-2.273-0.513v-9.472
		c0.999-0.546,1.986-0.823,2.937-0.823c1.309,0,2.256,0.512,2.9,1.566c0.55,0.889,0.829,2.085,0.829,3.555
		c0,0.83-0.099,1.605-0.294,2.304C28.746,110.155,27.405,111.261,25.286,111.261z"/>
	<path d="M59.312,97.898h-5.321c-0.338,0-0.576,0.237-0.576,0.575v0.838c0,0.315,0.226,0.544,0.493,0.544c0.001,0,0.003,0,0.004,0
		l1.386,0.155l-3.135,7.766l-3.168-7.765l1.338-0.154c0.325,0,0.561-0.229,0.561-0.546v-0.838c0-0.338-0.244-0.575-0.594-0.575
		h-6.653c-0.338,0-0.575,0.237-0.575,0.575v0.838c0,0.316,0.215,0.547,0.494,0.543l1.603,0.204l0.737,1.83
		c0.001,0.001,0.001,0.001,0.002,0.003c-0.005,0.011-0.01,0.023-0.015,0.035l-2.661,5.903l-3.215-7.818l1.338-0.154
		c0.322,0,0.555-0.229,0.555-0.546v-0.585l-0.024-0.437c-0.071-0.256-0.291-0.424-0.583-0.424l-6.878,0.033
		c-0.337,0-0.571,0.237-0.571,0.575v0.838c0,0.314,0.225,0.544,0.488,0.544c0.002,0,0.003,0,0.005,0l1.774,0.207l5.342,12.995
		c0.081,0.231,0.279,0.375,0.52,0.375h0.76c0.262,0,0.47-0.15,0.524-0.344l3.749-8.479l3.457,8.439
		c0.076,0.233,0.281,0.383,0.524,0.383h0.841c0.24,0,0.439-0.144,0.513-0.354l5.335-13.042l1.625-0.177
		c0.35,0,0.595-0.237,0.595-0.579v-0.806C59.907,98.136,59.662,97.898,59.312,97.898z"/>
</g>
<g>
	<path d="M72.068,90.559c0-0.107,0.058-0.159,0.163-0.159h8.688c0.11,0,0.162,0.052,0.162,0.159v0.857
		c0,0.11-0.052,0.162-0.162,0.162l-2.65,0.278c-0.11,0-0.166,0.052-0.166,0.159v8.025c0,0.065,0.017,0.1,0.049,0.1h10.649
		c0.021-0.026,0.03-0.058,0.03-0.1v-8.025c0-0.107-0.052-0.159-0.16-0.159l-2.654-0.278c-0.106,0-0.162-0.052-0.162-0.162v-0.857
		c0-0.107,0.055-0.159,0.162-0.159h8.69c0.107,0,0.159,0.052,0.159,0.159v0.857c0,0.11-0.052,0.162-0.159,0.162l-2.833,0.278
		c-0.107,0-0.162,0.052-0.162,0.159v19.063c0,0.106,0.055,0.162,0.162,0.162l2.833,0.259c0.107,0,0.159,0.061,0.159,0.178v0.857
		c0,0.106-0.052,0.162-0.159,0.162h-8.69c-0.106,0-0.162-0.055-0.162-0.162v-0.857c0-0.117,0.055-0.178,0.162-0.178l2.654-0.259
		c0.108,0,0.16-0.055,0.16-0.162v-9.255c0-0.11-0.052-0.162-0.16-0.162H78.27c-0.11,0-0.166,0.052-0.166,0.162v9.255
		c0,0.106,0.056,0.162,0.166,0.162l2.65,0.259c0.11,0,0.162,0.061,0.162,0.178v0.857c0,0.106-0.052,0.162-0.162,0.162h-8.688
		c-0.105,0-0.163-0.055-0.163-0.162v-0.857c0-0.117,0.058-0.178,0.163-0.178l2.813-0.259c0.11,0,0.165-0.055,0.165-0.162V92.014
		c0-0.107-0.055-0.159-0.165-0.159l-2.813-0.278c-0.105,0-0.163-0.052-0.163-0.162V90.559z"/>
	<path d="M105.774,90.4c2.112,0,3.71,0.178,4.791,0.546c2.725,0.928,4.09,2.853,4.09,5.781c0,1.951-0.875,3.545-2.622,4.787
		c-1.553,1.087-3.353,1.657-5.404,1.702l-3.203-0.57v8.431c0,0.097,0.052,0.152,0.162,0.162l3.138,0.259
		c0.12,0.01,0.178,0.071,0.178,0.178v0.857c0,0.106-0.058,0.162-0.178,0.162h-9.239c-0.11,0-0.162-0.055-0.162-0.162v-0.857
		c0-0.117,0.052-0.178,0.162-0.178l2.816-0.259c0.108,0,0.16-0.055,0.16-0.162V92.014c0-0.107-0.052-0.159-0.16-0.159l-2.816-0.278
		c-0.11,0-0.162-0.052-0.162-0.162v-0.857c0-0.107,0.052-0.159,0.162-0.159H105.774z M103.589,91.92
		c-0.11,0-0.162,0.052-0.162,0.162v9.417c0,0.107,0.052,0.162,0.162,0.162h1.927c3.901,0,5.853-1.714,5.853-5.126
		c0-1.663-0.608-2.876-1.826-3.63c-1.056-0.657-2.504-0.983-4.336-0.983H103.589z"/>
	<path d="M129.527,89.896c0.4,0,0.849,0.026,1.36,0.081c0.505,0.055,1.018,0.12,1.536,0.204c0.519,0.082,1.028,0.169,1.526,0.263
		c0.503,0.101,0.938,0.181,1.305,0.246c0.12,0.019,0.178,0.078,0.178,0.162v5.017c0,0.107-0.058,0.162-0.178,0.162h-1.277
		c-0.057,0-0.097-0.013-0.129-0.029c-0.036-0.026-0.048-0.058-0.048-0.101l-0.665-3.723c0-0.062-0.044-0.116-0.128-0.162
		c-0.194-0.042-0.444-0.1-0.744-0.175c-0.302-0.078-0.614-0.148-0.931-0.22c-0.319-0.071-0.647-0.126-0.985-0.171
		c-0.342-0.045-0.67-0.065-0.98-0.065c-1.479,0-2.79,0.227-3.94,0.679c-1.15,0.457-2.12,1.097-2.907,1.925
		c-0.786,0.832-1.384,1.831-1.796,2.989c-0.406,1.161-0.611,2.436-0.611,3.827c0,1.456,0.211,2.837,0.645,4.141
		c0.431,1.303,1.045,2.452,1.844,3.445c0.799,0.997,1.763,1.779,2.89,2.348c1.127,0.57,2.375,0.857,3.746,0.857
		c0.236,0,0.529-0.01,0.873-0.032c0.345-0.022,0.688-0.055,1.029-0.097c0.338-0.042,0.676-0.097,1.011-0.162
		c0.332-0.064,0.618-0.162,0.857-0.292c0.084-0.052,0.128-0.11,0.128-0.178l0.665-3.739c0-0.02,0.013-0.049,0.048-0.078
		c0.032-0.033,0.072-0.049,0.129-0.049h1.277c0.12,0,0.178,0.055,0.178,0.162v4.998c0,0.065-0.058,0.12-0.178,0.162
		c-0.367,0.101-0.77,0.197-1.215,0.294c-0.441,0.094-0.923,0.184-1.445,0.271c-0.526,0.087-1.09,0.159-1.695,0.22
		c-0.598,0.058-1.268,0.088-2.004,0.088c-1.207,0-2.342-0.13-3.405-0.396c-1.063-0.262-2.042-0.65-2.939-1.148
		c-0.894-0.501-1.691-1.1-2.387-1.795c-0.695-0.695-1.279-1.469-1.755-2.316c-0.474-0.848-0.845-1.776-1.11-2.782
		c-0.263-1.009-0.396-2.054-0.396-3.131c0-1.242,0.155-2.391,0.465-3.445c0.304-1.058,0.744-2.025,1.31-2.901
		c0.563-0.87,1.231-1.64,2.004-2.303c0.77-0.664,1.621-1.22,2.548-1.676c0.928-0.453,1.931-0.796,3.003-1.025
		C127.307,90.012,128.405,89.896,129.527,89.896z"/>
</g>
<rect x="65.122" y="78.742" width="1.732" height="47.955"/>
<linearGradient id="SVGID_1_" gradientUnits="userSpaceOnUse" x1="51.0254" y1="16.0747" x2="74.2957" y2="39.345">
	<stop  offset="0" style="stop-color:#CA9C47"/>
	<stop  offset="0.6" style="stop-color:#AF8327"/>
	<stop  offset="0.9803" style="stop-color:#AF8327"/>
</linearGradient>
<path fill="url(#SVGID_1_)" d="M47.949,23.5v18.92h18.92c5.799,0,10.501-4.701,10.501-10.5V12.998H66.87h-1.419h-7
	C52.65,12.998,47.949,17.701,47.949,23.5z"/>
<linearGradient id="SVGID_2_" gradientUnits="userSpaceOnUse" x1="16.4048" y1="12.9985" x2="45.8271" y2="42.4208">
	<stop  offset="0" style="stop-color:#DFB780"/>
	<stop  offset="0.0895" style="stop-color:#DAB072"/>
	<stop  offset="0.4269" style="stop-color:#CC9540"/>
	<stop  offset="0.5911" style="stop-color:#C68C2E"/>
	<stop  offset="1" style="stop-color:#C68C2E"/>
</linearGradient>
<path fill="url(#SVGID_2_)" d="M35.325,12.998h-3.069h-5.349H16.404V23.5v1.417v7.002c0,5.799,4.701,10.5,10.502,10.5h3.067h5.351
	h10.502v-10.5V30.5v-7C45.827,17.7,41.125,12.998,35.325,12.998z"/>
<linearGradient id="SVGID_3_" gradientUnits="userSpaceOnUse" x1="47.9492" y1="44.5952" x2="77.3708" y2="74.0168">
	<stop  offset="0" style="stop-color:#997C31"/>
	<stop  offset="0.6591" style="stop-color:#926F1C"/>
	<stop  offset="1" style="stop-color:#926F1C"/>
</linearGradient>
<path fill="url(#SVGID_3_)" d="M58.451,74.017h18.92V55.095c0-5.799-4.702-10.501-10.501-10.501h-18.92v18.921
	C47.949,69.315,52.65,74.017,58.451,74.017z"/>
<linearGradient id="SVGID_4_" gradientUnits="userSpaceOnUse" x1="19.4805" y1="47.6704" x2="42.7515" y2="70.9414">
	<stop  offset="0" style="stop-color:#AF8833"/>
	<stop  offset="0.7" style="stop-color:#7E641C"/>
</linearGradient>
<path fill="url(#SVGID_4_)" d="M45.827,63.516V44.594h-18.92c-5.801,0-10.502,4.703-10.502,10.501v18.921h18.92
	C41.125,74.017,45.827,69.315,45.827,63.516z"/>
<radialGradient id="SVGID_5_" cx="46.8887" cy="43.5073" r="13.0068" gradientUnits="userSpaceOnUse">
	<stop  offset="0" style="stop-color:#CA9912"/>
	<stop  offset="1" style="stop-color:#E7AB00"/>
</radialGradient>
<rect x="33.882" y="30.501" fill="url(#SVGID_5_)" width="26.014" height="26.013"/>
<g>
	<path d="M97.059,36.152c-0.03,0.254,0.033,0.605,0.157,0.667c0.166,0.087,0.708-0.469,0.951-0.843
		C97.516,35.91,97.059,36.152,97.059,36.152L97.059,36.152z M94.232,38.675c0,0-0.194-1.892-0.094-2.133
		c0.038-0.1,3.547-1.559,4.958-1.453c0.881,0.068,2.399,0.206,2.894,0.297c0.491,0.089,1.583-0.607,1.94-0.621
		c-0.025,0.097-0.47,1.104-0.47,1.104c0.877,0.808,2.082,3.507,2.237,5.253c0.942,0.869,5.847,3.004,14.541,0.155
		c5.787-1.898,9.393,0.679,10.365-2.036c0.226-0.628,0.363-1.579-1.215-2.435c-1.649-0.895-4.32-0.838-9.553,1.19
		c-2.334,0.903-6.527,2.368-8.554,2.38c-1.926,0.007-3.191-1.13-3.155-3.071c0.026-1.455,2.995-3.128,3.086-3.002
		c0.108,0.141-2.223,2.184-0.917,4.023c1.304,1.844,3.801,0.792,4.792,0.519c4.073-1.111,10.54-5.075,14.969-3.095
		c2.768,1.236,2.82,5.022-0.067,5.882c0.722,1.542,2.238,5.083,2.296,6.609c0.033,0,3.34,0.755,3.34,0.755l-0.199,4.791h-5.617
		c0,0-0.231-1.449,2.927-2.158c-0.017-0.47-5.787-2.002-7.194-4.241c-1.958,2.189-3.378,5.838-3.355,6.398l-6.932,0.02
		c0,0-0.778-2.126,4.413-2.349c-0.062-1.681,0.111-4.449,0.203-5.367c-5.263,0.734-5.066,4.671-13.517,4.397
		c-0.062,0.253-0.08,0.789-0.08,0.789s-8.812,2.51-8.823,2.53h-8.87c0.088-1.043,0.557-2.56,5.504-1.981
		c0.868-0.826,3.38-2.708,3.38-2.708s-7.089-4.465-7.086-4.486c-0.843-1.277-1.654-1.274-3.418-1.316
		c-0.212-3.073,5.138-2.289,5.222-0.518c-0.081,0.044,4.829,0.44,4.829,0.44s0.055-2.234,0.047-2.252
		c-1.249,0.252-1.476,1.26-1.803,1.063c-0.403-0.239-0.345-0.622-0.374-1.572c0.847,0.805,1.141,0.17,1.306-0.766
		c-1.208,0.216-4.027,0.715-3.901-2.042c0.017,0.019,0.109-0.005,0.113,0.019c0.206,2.294,3.046,1.913,3.513,1.189
		C96.14,38.519,95.456,37.162,94.232,38.675L94.232,38.675z"/>
	<path d="M97.059,15.334c-0.03,0.254,0.033,0.601,0.157,0.665c0.166,0.085,0.708-0.466,0.951-0.843
		C97.516,15.092,97.059,15.334,97.059,15.334L97.059,15.334z M94.232,17.857c0,0-0.194-1.895-0.094-2.134
		c0.038-0.099,3.547-1.561,4.958-1.453c0.881,0.067,2.399,0.205,2.894,0.295c0.491,0.089,1.583-0.605,1.94-0.623
		c-0.025,0.101-0.47,1.108-0.47,1.108c0.877,0.807,2.082,3.506,2.237,5.253c0.942,0.868,5.847,3.004,14.541,0.155
		c5.787-1.899,9.393,0.678,10.365-2.039c0.226-0.625,0.363-1.577-1.215-2.432c-1.649-0.893-4.32-0.837-9.553,1.188
		c-2.334,0.903-6.527,2.373-8.554,2.38c-1.926,0.01-3.191-1.129-3.155-3.067c0.026-1.46,2.995-3.131,3.086-3.009
		c0.108,0.144-2.223,2.187-0.917,4.026c1.304,1.84,3.801,0.789,4.792,0.521c4.073-1.11,10.54-5.079,14.969-3.097
		c2.768,1.235,2.82,5.021-0.067,5.883c0.722,1.544,2.238,5.084,2.296,6.608c0.033,0,3.34,0.762,3.34,0.762l-0.199,4.785h-5.617
		c0,0-0.231-1.449,2.927-2.156c-0.017-0.47-5.787-2-7.194-4.242c-1.958,2.189-3.378,5.84-3.355,6.398l-6.932,0.018
		c0,0-0.778-2.123,4.413-2.344c-0.062-1.682,0.111-4.451,0.203-5.371c-5.263,0.734-5.066,4.674-13.517,4.399
		c-0.062,0.253-0.08,0.789-0.08,0.789s-8.812,2.508-8.823,2.526h-8.87c0.088-1.038,0.557-2.559,5.504-1.98
		c0.868-0.824,3.38-2.708,3.38-2.708s-7.089-4.464-7.086-4.486c-0.843-1.277-1.654-1.275-3.418-1.316
		c-0.212-3.075,5.138-2.288,5.222-0.516c-0.081,0.044,4.829,0.439,4.829,0.439s0.055-2.236,0.047-2.255
		c-1.249,0.253-1.476,1.261-1.803,1.066c-0.403-0.241-0.345-0.623-0.374-1.576c0.847,0.807,1.141,0.172,1.306-0.767
		c-1.208,0.218-4.027,0.72-3.901-2.041c0.017,0.017,0.109-0.005,0.113,0.018c0.206,2.297,3.046,1.913,3.513,1.19
		C96.14,17.699,95.456,16.343,94.232,17.857L94.232,17.857z"/>
	<path d="M97.059,56.836c-0.03,0.253,0.033,0.605,0.157,0.667c0.166,0.085,0.708-0.469,0.951-0.843
		C97.516,56.597,97.059,56.836,97.059,56.836L97.059,56.836z M94.232,59.36c0,0-0.194-1.893-0.094-2.135
		c0.038-0.097,3.547-1.558,4.958-1.451c0.881,0.066,2.399,0.203,2.894,0.295c0.491,0.088,1.583-0.607,1.94-0.624
		c-0.025,0.101-0.47,1.106-0.47,1.106c0.877,0.808,2.082,3.507,2.237,5.252c0.942,0.87,5.847,3.003,14.541,0.154
		c5.787-1.896,9.393,0.679,10.365-2.036c0.226-0.626,0.363-1.575-1.215-2.434c-1.649-0.892-4.32-0.835-9.553,1.192
		c-2.334,0.903-6.527,2.369-8.554,2.377c-1.926,0.007-3.191-1.131-3.155-3.069c0.026-1.456,2.995-3.131,3.086-3.006
		c0.108,0.146-2.223,2.188-0.917,4.025c1.304,1.841,3.801,0.792,4.792,0.52c4.073-1.11,10.54-5.075,14.969-3.095
		c2.768,1.237,2.82,5.021-0.067,5.882c0.722,1.542,2.238,5.084,2.296,6.609c0.033,0,3.34,0.758,3.34,0.758l-0.199,4.789h-5.617
		c0,0-0.231-1.451,2.927-2.158c-0.017-0.47-5.787-2.001-7.194-4.241c-1.958,2.191-3.378,5.838-3.355,6.399l-6.932,0.02
		c0,0-0.778-2.126,4.413-2.349c-0.062-1.681,0.111-4.448,0.203-5.367c-5.263,0.733-5.066,4.672-13.517,4.396
		c-0.062,0.254-0.08,0.79-0.08,0.79s-8.812,2.511-8.823,2.531h-8.87c0.088-1.043,0.557-2.561,5.504-1.981
		c0.868-0.827,3.38-2.708,3.38-2.708s-7.089-4.467-7.086-4.489c-0.843-1.275-1.654-1.275-3.418-1.316
		c-0.212-3.073,5.138-2.29,5.222-0.516c-0.081,0.042,4.829,0.438,4.829,0.438s0.055-2.233,0.047-2.253
		c-1.249,0.253-1.476,1.264-1.803,1.066c-0.403-0.242-0.345-0.625-0.374-1.576c0.847,0.805,1.141,0.173,1.306-0.767
		c-1.208,0.218-4.027,0.719-3.901-2.04c0.017,0.018,0.109-0.003,0.113,0.019c0.206,2.292,3.046,1.911,3.513,1.189
		C96.14,59.203,95.456,57.845,94.232,59.36L94.232,59.36z"/>
</g>
</svg>
